<mxfile host="www.draw.io" modified="2020-04-03T16:21:46.357Z" agent="5.0 (X11)" etag="kyKCjV_h1LvK4K9bbAbW" version="12.9.6" type="github">
  <diagram id="Jp8tda-DwW-DgcWddvx5" name="Page-1">
    <mxGraphModel dx="1115" dy="773" grid="1" gridSize="10" guides="1" tooltips="1" connect="1" arrows="1" fold="1" page="1" pageScale="1" pageWidth="827" pageHeight="1169" math="0" shadow="0">
      <root>
        <mxCell id="0" />
        <mxCell id="1" parent="0" />
        <mxCell id="RNud2RT-OnFLoZX_OF3f-1" value="Weather data" style="shape=parallelogram;html=1;strokeWidth=2;perimeter=parallelogramPerimeter;whiteSpace=wrap;rounded=1;arcSize=12;size=0.23;" vertex="1" parent="1">
          <mxGeometry x="40" y="209" width="100" height="60" as="geometry" />
        </mxCell>
        <mxCell id="RNud2RT-OnFLoZX_OF3f-11" style="edgeStyle=orthogonalEdgeStyle;rounded=0;orthogonalLoop=1;jettySize=auto;html=1;" edge="1" parent="1" source="RNud2RT-OnFLoZX_OF3f-2" target="RNud2RT-OnFLoZX_OF3f-7">
          <mxGeometry relative="1" as="geometry" />
        </mxCell>
        <mxCell id="RNud2RT-OnFLoZX_OF3f-2" value="Weatherdata" style="shape=internalStorage;whiteSpace=wrap;html=1;dx=15;dy=15;rounded=1;arcSize=8;strokeWidth=2;" vertex="1" parent="1">
          <mxGeometry x="190" y="204" width="70" height="70" as="geometry" />
        </mxCell>
        <mxCell id="RNud2RT-OnFLoZX_OF3f-3" value="" style="endArrow=classic;html=1;entryX=0;entryY=0.5;entryDx=0;entryDy=0;" edge="1" parent="1" source="RNud2RT-OnFLoZX_OF3f-1" target="RNud2RT-OnFLoZX_OF3f-2">
          <mxGeometry width="50" height="50" relative="1" as="geometry">
            <mxPoint x="350" y="549" as="sourcePoint" />
            <mxPoint x="400" y="499" as="targetPoint" />
          </mxGeometry>
        </mxCell>
        <mxCell id="RNud2RT-OnFLoZX_OF3f-27" style="edgeStyle=orthogonalEdgeStyle;rounded=0;orthogonalLoop=1;jettySize=auto;html=1;entryX=0.5;entryY=0;entryDx=0;entryDy=0;entryPerimeter=0;exitX=0.5;exitY=1;exitDx=0;exitDy=0;" edge="1" parent="1" source="RNud2RT-OnFLoZX_OF3f-34" target="RNud2RT-OnFLoZX_OF3f-17">
          <mxGeometry relative="1" as="geometry">
            <mxPoint x="717" y="253" as="sourcePoint" />
            <Array as="points">
              <mxPoint x="688" y="350" />
              <mxPoint x="234" y="350" />
            </Array>
          </mxGeometry>
        </mxCell>
        <mxCell id="RNud2RT-OnFLoZX_OF3f-12" style="edgeStyle=orthogonalEdgeStyle;rounded=0;orthogonalLoop=1;jettySize=auto;html=1;entryX=0;entryY=0.5;entryDx=0;entryDy=0;entryPerimeter=0;" edge="1" parent="1" source="RNud2RT-OnFLoZX_OF3f-7" target="RNud2RT-OnFLoZX_OF3f-10">
          <mxGeometry relative="1" as="geometry" />
        </mxCell>
        <mxCell id="RNud2RT-OnFLoZX_OF3f-7" value="Crear chron columna library chron" style="verticalLabelPosition=bottom;verticalAlign=top;html=1;shape=hexagon;perimeter=hexagonPerimeter2;arcSize=6;size=0.27;" vertex="1" parent="1">
          <mxGeometry x="310" y="149" width="100" height="60" as="geometry" />
        </mxCell>
        <mxCell id="RNud2RT-OnFLoZX_OF3f-15" style="edgeStyle=orthogonalEdgeStyle;rounded=0;orthogonalLoop=1;jettySize=auto;html=1;exitX=1;exitY=0.5;exitDx=0;exitDy=0;exitPerimeter=0;entryX=-0.015;entryY=0.083;entryDx=0;entryDy=0;entryPerimeter=0;" edge="1" parent="1" source="RNud2RT-OnFLoZX_OF3f-10" target="RNud2RT-OnFLoZX_OF3f-34">
          <mxGeometry relative="1" as="geometry">
            <mxPoint x="631.5" y="250" as="targetPoint" />
          </mxGeometry>
        </mxCell>
        <mxCell id="RNud2RT-OnFLoZX_OF3f-10" value="Sort by chron" style="verticalLabelPosition=bottom;verticalAlign=top;html=1;shape=mxgraph.flowchart.sort;" vertex="1" parent="1">
          <mxGeometry x="429" y="129" width="100" height="100" as="geometry" />
        </mxCell>
        <mxCell id="RNud2RT-OnFLoZX_OF3f-54" style="edgeStyle=orthogonalEdgeStyle;rounded=0;orthogonalLoop=1;jettySize=auto;html=1;entryX=1;entryY=0.5;entryDx=0;entryDy=0;entryPerimeter=0;" edge="1" parent="1" source="RNud2RT-OnFLoZX_OF3f-16" target="RNud2RT-OnFLoZX_OF3f-17">
          <mxGeometry relative="1" as="geometry" />
        </mxCell>
        <mxCell id="RNud2RT-OnFLoZX_OF3f-63" style="edgeStyle=orthogonalEdgeStyle;rounded=0;orthogonalLoop=1;jettySize=auto;html=1;exitX=1;exitY=0.5;exitDx=0;exitDy=0;exitPerimeter=0;entryX=-0.02;entryY=0.115;entryDx=0;entryDy=0;entryPerimeter=0;" edge="1" parent="1" source="RNud2RT-OnFLoZX_OF3f-16" target="RNud2RT-OnFLoZX_OF3f-56">
          <mxGeometry relative="1" as="geometry">
            <mxPoint x="520" y="430" as="targetPoint" />
          </mxGeometry>
        </mxCell>
        <mxCell id="RNud2RT-OnFLoZX_OF3f-16" value="Until cell max" style="strokeWidth=2;html=1;shape=mxgraph.flowchart.loop_limit;whiteSpace=wrap;" vertex="1" parent="1">
          <mxGeometry x="339" y="400" width="100" height="60" as="geometry" />
        </mxCell>
        <mxCell id="RNud2RT-OnFLoZX_OF3f-45" style="edgeStyle=orthogonalEdgeStyle;rounded=0;orthogonalLoop=1;jettySize=auto;html=1;exitX=0.5;exitY=1;exitDx=0;exitDy=0;exitPerimeter=0;entryX=0.5;entryY=0;entryDx=0;entryDy=0;entryPerimeter=0;" edge="1" parent="1" source="RNud2RT-OnFLoZX_OF3f-17" target="RNud2RT-OnFLoZX_OF3f-44">
          <mxGeometry relative="1" as="geometry" />
        </mxCell>
        <mxCell id="RNud2RT-OnFLoZX_OF3f-17" value="Loop cells" style="strokeWidth=2;html=1;shape=mxgraph.flowchart.start_1;whiteSpace=wrap;" vertex="1" parent="1">
          <mxGeometry x="184" y="400" width="100" height="60" as="geometry" />
        </mxCell>
        <mxCell id="RNud2RT-OnFLoZX_OF3f-28" value="loop for cell in cells : n, for day in days" style="text;html=1;align=center;verticalAlign=middle;resizable=0;points=[];autosize=1;" vertex="1" parent="1">
          <mxGeometry x="410" y="320" width="220" height="20" as="geometry" />
        </mxCell>
        <mxCell id="RNud2RT-OnFLoZX_OF3f-30" value="Geotiff Data &lt;br&gt;por cada dÃ­a" style="shape=parallelogram;html=1;strokeWidth=2;perimeter=parallelogramPerimeter;whiteSpace=wrap;rounded=1;arcSize=12;size=0.23;" vertex="1" parent="1">
          <mxGeometry x="40" y="89" width="110" height="60" as="geometry" />
        </mxCell>
        <mxCell id="RNud2RT-OnFLoZX_OF3f-42" style="edgeStyle=orthogonalEdgeStyle;rounded=0;orthogonalLoop=1;jettySize=auto;html=1;exitX=1;exitY=0.5;exitDx=0;exitDy=0;entryX=0;entryY=0.5;entryDx=0;entryDy=0;" edge="1" parent="1" source="RNud2RT-OnFLoZX_OF3f-40" target="RNud2RT-OnFLoZX_OF3f-7">
          <mxGeometry relative="1" as="geometry" />
        </mxCell>
        <mxCell id="RNud2RT-OnFLoZX_OF3f-40" value="Weatherdata table" style="shape=internalStorage;whiteSpace=wrap;html=1;dx=15;dy=15;rounded=1;arcSize=8;strokeWidth=2;" vertex="1" parent="1">
          <mxGeometry x="190" y="84" width="70" height="70" as="geometry" />
        </mxCell>
        <mxCell id="RNud2RT-OnFLoZX_OF3f-41" value="" style="edgeStyle=orthogonalEdgeStyle;rounded=0;orthogonalLoop=1;jettySize=auto;html=1;entryX=0;entryY=0.5;entryDx=0;entryDy=0;" edge="1" parent="1" source="RNud2RT-OnFLoZX_OF3f-30" target="RNud2RT-OnFLoZX_OF3f-40">
          <mxGeometry relative="1" as="geometry">
            <mxPoint x="137.3499999999999" y="119" as="sourcePoint" />
            <mxPoint x="550" y="33.039999999999964" as="targetPoint" />
          </mxGeometry>
        </mxCell>
        <mxCell id="RNud2RT-OnFLoZX_OF3f-52" style="edgeStyle=orthogonalEdgeStyle;rounded=0;orthogonalLoop=1;jettySize=auto;html=1;exitX=0;exitY=0.5;exitDx=0;exitDy=0;exitPerimeter=0;entryX=1;entryY=0.5;entryDx=0;entryDy=0;entryPerimeter=0;" edge="1" parent="1" source="RNud2RT-OnFLoZX_OF3f-43" target="RNud2RT-OnFLoZX_OF3f-44">
          <mxGeometry relative="1" as="geometry" />
        </mxCell>
        <mxCell id="RNud2RT-OnFLoZX_OF3f-43" value="Until Day max" style="strokeWidth=2;html=1;shape=mxgraph.flowchart.loop_limit;whiteSpace=wrap;" vertex="1" parent="1">
          <mxGeometry x="339" y="510" width="100" height="60" as="geometry" />
        </mxCell>
        <mxCell id="RNud2RT-OnFLoZX_OF3f-50" style="edgeStyle=orthogonalEdgeStyle;rounded=0;orthogonalLoop=1;jettySize=auto;html=1;exitX=0;exitY=0.5;exitDx=0;exitDy=0;exitPerimeter=0;" edge="1" parent="1" source="RNud2RT-OnFLoZX_OF3f-44" target="RNud2RT-OnFLoZX_OF3f-47">
          <mxGeometry relative="1" as="geometry" />
        </mxCell>
        <mxCell id="RNud2RT-OnFLoZX_OF3f-53" style="edgeStyle=orthogonalEdgeStyle;rounded=0;orthogonalLoop=1;jettySize=auto;html=1;exitX=0.5;exitY=0;exitDx=0;exitDy=0;exitPerimeter=0;entryX=0.5;entryY=1;entryDx=0;entryDy=0;entryPerimeter=0;" edge="1" parent="1" source="RNud2RT-OnFLoZX_OF3f-43" target="RNud2RT-OnFLoZX_OF3f-16">
          <mxGeometry relative="1" as="geometry" />
        </mxCell>
        <mxCell id="RNud2RT-OnFLoZX_OF3f-44" value="Loop days" style="strokeWidth=2;html=1;shape=mxgraph.flowchart.start_1;whiteSpace=wrap;" vertex="1" parent="1">
          <mxGeometry x="184" y="510" width="100" height="60" as="geometry" />
        </mxCell>
        <mxCell id="RNud2RT-OnFLoZX_OF3f-51" style="edgeStyle=orthogonalEdgeStyle;rounded=0;orthogonalLoop=1;jettySize=auto;html=1;entryX=1;entryY=0.5;entryDx=0;entryDy=0;entryPerimeter=0;" edge="1" parent="1" source="RNud2RT-OnFLoZX_OF3f-49" target="RNud2RT-OnFLoZX_OF3f-43">
          <mxGeometry relative="1" as="geometry" />
        </mxCell>
        <mxCell id="RNud2RT-OnFLoZX_OF3f-46" value="Process Bar" style="swimlane;childLayout=stackLayout;horizontal=1;fillColor=none;horizontalStack=1;resizeParent=1;resizeParentMax=0;resizeLast=0;collapsible=0;strokeColor=none;stackBorder=10;stackSpacing=-12;resizable=1;align=center;points=[];fontColor=#000000;" vertex="1" parent="1">
          <mxGeometry x="50" y="630" width="338" height="120" as="geometry" />
        </mxCell>
        <mxCell id="RNud2RT-OnFLoZX_OF3f-47" value="Select hours&#xa;from 13h to &#xa;12h dia 2" style="shape=step;perimeter=stepPerimeter;fixedSize=1;points=[];spacing=0;" vertex="1" parent="RNud2RT-OnFLoZX_OF3f-46">
          <mxGeometry x="10" y="33" width="120" height="77" as="geometry" />
        </mxCell>
        <mxCell id="RNud2RT-OnFLoZX_OF3f-48" value="Calculate TÂº &#xa;and t in&#xa;consecutive &#xa;periods &#xa;above 90%RH" style="shape=step;perimeter=stepPerimeter;fixedSize=1;points=[];" vertex="1" parent="RNud2RT-OnFLoZX_OF3f-46">
          <mxGeometry x="118" y="33" width="122" height="77" as="geometry" />
        </mxCell>
        <mxCell id="RNud2RT-OnFLoZX_OF3f-49" value="Calculate &#xa;BlightR" style="shape=step;perimeter=stepPerimeter;fixedSize=1;points=[];" vertex="1" parent="RNud2RT-OnFLoZX_OF3f-46">
          <mxGeometry x="228" y="33" width="100" height="77" as="geometry" />
        </mxCell>
        <mxCell id="RNud2RT-OnFLoZX_OF3f-34" value="Wheather temporal map data frame" style="swimlane;fontStyle=0;childLayout=stackLayout;horizontal=1;startSize=26;fillColor=none;horizontalStack=0;resizeParent=1;resizeParentMax=0;resizeLast=0;collapsible=1;marginBottom=0;" vertex="1" parent="1">
          <mxGeometry x="590" y="90" width="196" height="156" as="geometry" />
        </mxCell>
        <mxCell id="RNud2RT-OnFLoZX_OF3f-35" value="chron (year, month, day, hour)" style="text;strokeColor=none;fillColor=none;align=left;verticalAlign=top;spacingLeft=4;spacingRight=4;overflow=hidden;rotatable=0;points=[[0,0.5],[1,0.5]];portConstraint=eastwest;" vertex="1" parent="RNud2RT-OnFLoZX_OF3f-34">
          <mxGeometry y="26" width="196" height="26" as="geometry" />
        </mxCell>
        <mxCell id="RNud2RT-OnFLoZX_OF3f-36" value="X" style="text;strokeColor=none;fillColor=none;align=left;verticalAlign=top;spacingLeft=4;spacingRight=4;overflow=hidden;rotatable=0;points=[[0,0.5],[1,0.5]];portConstraint=eastwest;" vertex="1" parent="RNud2RT-OnFLoZX_OF3f-34">
          <mxGeometry y="52" width="196" height="26" as="geometry" />
        </mxCell>
        <mxCell id="RNud2RT-OnFLoZX_OF3f-37" value="Y" style="text;strokeColor=none;fillColor=none;align=left;verticalAlign=top;spacingLeft=4;spacingRight=4;overflow=hidden;rotatable=0;points=[[0,0.5],[1,0.5]];portConstraint=eastwest;" vertex="1" parent="RNud2RT-OnFLoZX_OF3f-34">
          <mxGeometry y="78" width="196" height="26" as="geometry" />
        </mxCell>
        <mxCell id="RNud2RT-OnFLoZX_OF3f-38" value="HR" style="text;strokeColor=none;fillColor=none;align=left;verticalAlign=top;spacingLeft=4;spacingRight=4;overflow=hidden;rotatable=0;points=[[0,0.5],[1,0.5]];portConstraint=eastwest;" vertex="1" parent="RNud2RT-OnFLoZX_OF3f-34">
          <mxGeometry y="104" width="196" height="26" as="geometry" />
        </mxCell>
        <mxCell id="RNud2RT-OnFLoZX_OF3f-39" value="T" style="text;strokeColor=none;fillColor=none;align=left;verticalAlign=top;spacingLeft=4;spacingRight=4;overflow=hidden;rotatable=0;points=[[0,0.5],[1,0.5]];portConstraint=eastwest;" vertex="1" parent="RNud2RT-OnFLoZX_OF3f-34">
          <mxGeometry y="130" width="196" height="26" as="geometry" />
        </mxCell>
        <mxCell id="RNud2RT-OnFLoZX_OF3f-72" style="edgeStyle=orthogonalEdgeStyle;rounded=0;orthogonalLoop=1;jettySize=auto;html=1;" edge="1" parent="1" source="RNud2RT-OnFLoZX_OF3f-56" target="RNud2RT-OnFLoZX_OF3f-64">
          <mxGeometry relative="1" as="geometry" />
        </mxCell>
        <mxCell id="RNud2RT-OnFLoZX_OF3f-56" value="Wheather temporal map data frame" style="swimlane;fontStyle=0;childLayout=stackLayout;horizontal=1;startSize=26;fillColor=none;horizontalStack=0;resizeParent=1;resizeParentMax=0;resizeLast=0;collapsible=1;marginBottom=0;" vertex="1" parent="1">
          <mxGeometry x="520" y="409" width="196" height="182" as="geometry" />
        </mxCell>
        <mxCell id="RNud2RT-OnFLoZX_OF3f-57" value="chron (year, month, day, hour)" style="text;strokeColor=none;fillColor=none;align=left;verticalAlign=top;spacingLeft=4;spacingRight=4;overflow=hidden;rotatable=0;points=[[0,0.5],[1,0.5]];portConstraint=eastwest;" vertex="1" parent="RNud2RT-OnFLoZX_OF3f-56">
          <mxGeometry y="26" width="196" height="26" as="geometry" />
        </mxCell>
        <mxCell id="RNud2RT-OnFLoZX_OF3f-58" value="X" style="text;strokeColor=none;fillColor=none;align=left;verticalAlign=top;spacingLeft=4;spacingRight=4;overflow=hidden;rotatable=0;points=[[0,0.5],[1,0.5]];portConstraint=eastwest;" vertex="1" parent="RNud2RT-OnFLoZX_OF3f-56">
          <mxGeometry y="52" width="196" height="26" as="geometry" />
        </mxCell>
        <mxCell id="RNud2RT-OnFLoZX_OF3f-59" value="Y" style="text;strokeColor=none;fillColor=none;align=left;verticalAlign=top;spacingLeft=4;spacingRight=4;overflow=hidden;rotatable=0;points=[[0,0.5],[1,0.5]];portConstraint=eastwest;" vertex="1" parent="RNud2RT-OnFLoZX_OF3f-56">
          <mxGeometry y="78" width="196" height="26" as="geometry" />
        </mxCell>
        <mxCell id="RNud2RT-OnFLoZX_OF3f-60" value="HR" style="text;strokeColor=none;fillColor=none;align=left;verticalAlign=top;spacingLeft=4;spacingRight=4;overflow=hidden;rotatable=0;points=[[0,0.5],[1,0.5]];portConstraint=eastwest;" vertex="1" parent="RNud2RT-OnFLoZX_OF3f-56">
          <mxGeometry y="104" width="196" height="26" as="geometry" />
        </mxCell>
        <mxCell id="RNud2RT-OnFLoZX_OF3f-61" value="T" style="text;strokeColor=none;fillColor=none;align=left;verticalAlign=top;spacingLeft=4;spacingRight=4;overflow=hidden;rotatable=0;points=[[0,0.5],[1,0.5]];portConstraint=eastwest;" vertex="1" parent="RNud2RT-OnFLoZX_OF3f-56">
          <mxGeometry y="130" width="196" height="26" as="geometry" />
        </mxCell>
        <mxCell id="RNud2RT-OnFLoZX_OF3f-62" value="BlightUnits @12h" style="text;strokeColor=none;fillColor=none;align=left;verticalAlign=top;spacingLeft=4;spacingRight=4;overflow=hidden;rotatable=0;points=[[0,0.5],[1,0.5]];portConstraint=eastwest;" vertex="1" parent="RNud2RT-OnFLoZX_OF3f-56">
          <mxGeometry y="156" width="196" height="26" as="geometry" />
        </mxCell>
        <mxCell id="RNud2RT-OnFLoZX_OF3f-64" value="Display map" style="shape=display;whiteSpace=wrap;html=1;" vertex="1" parent="1">
          <mxGeometry x="578" y="810" width="80" height="40" as="geometry" />
        </mxCell>
        <mxCell id="RNud2RT-OnFLoZX_OF3f-71" style="edgeStyle=orthogonalEdgeStyle;rounded=0;orthogonalLoop=1;jettySize=auto;html=1;" edge="1" parent="1" source="RNud2RT-OnFLoZX_OF3f-65" target="RNud2RT-OnFLoZX_OF3f-64">
          <mxGeometry relative="1" as="geometry" />
        </mxCell>
        <mxCell id="RNud2RT-OnFLoZX_OF3f-65" value="Input day" style="shape=manualInput;whiteSpace=wrap;html=1;" vertex="1" parent="1">
          <mxGeometry x="339" y="790" width="80" height="80" as="geometry" />
        </mxCell>
        <mxCell id="RNud2RT-OnFLoZX_OF3f-70" style="edgeStyle=orthogonalEdgeStyle;rounded=0;orthogonalLoop=1;jettySize=auto;html=1;" edge="1" parent="1" source="RNud2RT-OnFLoZX_OF3f-66" target="RNud2RT-OnFLoZX_OF3f-65">
          <mxGeometry relative="1" as="geometry" />
        </mxCell>
        <mxCell id="RNud2RT-OnFLoZX_OF3f-66" value="User of agromaker platform" style="shape=umlActor;verticalLabelPosition=bottom;labelBackgroundColor=#ffffff;verticalAlign=top;html=1;outlineConnect=0;" vertex="1" parent="1">
          <mxGeometry x="120" y="800" width="30" height="60" as="geometry" />
        </mxCell>
      </root>
    </mxGraphModel>
  </diagram>
</mxfile>
